<svg width="37" height="35" viewBox="0 0 37 35" fill="none" xmlns="http://www.w3.org/2000/svg">
<g clip-path="url(#clip0_25_31)">
<path d="M18.8671 0C8.95049 0 0.90918 8.02281 0.90918 17.9197C0.90918 25.8373 6.05466 32.5543 13.1899 34.9239C14.0874 35.0897 14.417 34.5351 14.417 34.0618C14.417 33.6345 14.4002 32.2228 14.3926 30.7255C9.39653 31.8095 8.34234 28.6112 8.34234 28.6112C7.52546 26.5399 6.34846 25.9892 6.34846 25.9892C4.71921 24.877 6.47127 24.8997 6.47127 24.8997C8.2746 25.0262 9.22415 26.7464 9.22415 26.7464C10.8258 29.486 13.4251 28.6939 14.4499 28.2362C14.611 27.0778 15.0765 26.2874 15.59 25.84C11.6014 25.3867 7.40828 23.8502 7.40828 16.9839C7.40828 15.0275 8.10981 13.4289 9.25865 12.174C9.07218 11.7226 8.45755 9.90002 9.43259 7.43169C9.43259 7.43169 10.9406 6.95006 14.3723 9.26857C15.8047 8.8714 17.3409 8.67239 18.8671 8.66565C20.3933 8.67239 21.9307 8.8714 23.3658 9.26857C26.7935 6.95006 28.2994 7.43169 28.2994 7.43169C29.2768 9.90002 28.6619 11.7226 28.4754 12.174C29.6268 13.4289 30.3235 15.0274 30.3235 16.9839C30.3235 23.8665 26.1225 25.3821 22.1238 25.8256C22.7678 26.3817 23.3418 27.4723 23.3418 29.1441C23.3418 31.5417 23.3209 33.4715 23.3209 34.0618C23.3209 34.5386 23.6441 35.0974 24.5545 34.9215C31.6859 32.5493 36.8249 25.8346 36.8249 17.9197C36.8249 8.02281 28.7847 0 18.8671 0Z" fill="black"/>
<path d="M7.63503 25.527C7.5956 25.616 7.45504 25.6427 7.32729 25.5817C7.19702 25.5232 7.12378 25.4018 7.16603 25.3124C7.20476 25.2208 7.34532 25.1952 7.47532 25.2568C7.60588 25.3151 7.68024 25.4376 7.63503 25.527ZM8.51839 26.3135C8.43276 26.3928 8.2653 26.3559 8.15164 26.2307C8.03418 26.1058 8.0122 25.9388 8.0991 25.8583C8.18741 25.7791 8.3498 25.8161 8.46754 25.9412C8.585 26.0675 8.60782 26.2335 8.51825 26.3136M9.12443 27.3198C9.01429 27.3961 8.83429 27.3245 8.72317 27.1652C8.61317 27.0059 8.61317 26.8148 8.72556 26.7382C8.83711 26.6616 9.01429 26.7305 9.12696 26.8886C9.23682 27.0506 9.23682 27.2418 9.12428 27.3199M10.1492 28.4853C10.0507 28.5935 9.84116 28.5645 9.68765 28.4167C9.53075 28.2722 9.48695 28.0672 9.58568 27.9588C9.68525 27.8503 9.89609 27.8808 10.0507 28.0274C10.2066 28.1716 10.2541 28.3782 10.1492 28.4853ZM11.4737 28.8788C11.4304 29.0191 11.2284 29.0829 11.0251 29.0233C10.822 28.9618 10.689 28.7974 10.73 28.6556C10.7723 28.5144 10.9751 28.4479 11.18 28.5117C11.3828 28.5728 11.5159 28.736 11.4737 28.8788ZM12.9812 29.0456C12.9863 29.1935 12.8138 29.316 12.6002 29.3187C12.3855 29.3233 12.2118 29.2037 12.2095 29.0584C12.2095 28.9091 12.3781 28.7877 12.5928 28.7842C12.8063 28.78 12.9812 28.8987 12.9812 29.0456ZM14.462 28.989C14.4876 29.1332 14.3392 29.2813 14.1272 29.3207C13.9188 29.3586 13.7258 29.2696 13.6992 29.1267C13.6733 28.9789 13.8246 28.8309 14.0326 28.7925C14.245 28.7557 14.435 28.8424 14.462 28.989Z" fill="black"/>
</g>
<defs>
<clipPath id="clip0_25_31">
<rect width="36.0553" height="35" fill="white" transform="translate(0.90918)"/>
</clipPath>
</defs>
</svg>
