<svg width="32" height="35" viewBox="0 0 32 35" fill="none" xmlns="http://www.w3.org/2000/svg">
<g clip-path="url(#clip0_25_35)">
<path d="M15.7342 25.3613C11.3462 25.3613 7.80684 21.8545 7.80684 17.5068C7.80684 13.1592 11.3462 9.65235 15.7342 9.65235C20.1222 9.65235 23.6616 13.1592 23.6616 17.5068C23.6616 21.8545 20.1222 25.3613 15.7342 25.3613ZM15.7342 12.4004C12.8986 12.4004 10.5804 14.6904 10.5804 17.5068C10.5804 20.3232 12.8917 22.6133 15.7342 22.6133C18.5767 22.6133 20.888 20.3232 20.888 17.5068C20.888 14.6904 18.5698 12.4004 15.7342 12.4004ZM25.8348 25.6826C25.8348 24.6641 25.0069 23.8506 23.9858 23.8506C22.9578 23.8506 22.1368 24.6709 22.1368 25.6826C22.1368 26.6943 22.9647 27.5146 23.9858 27.5146C25.0069 27.5146 25.8348 26.6943 25.8348 25.6826ZM31.0853 23.8232C30.968 26.2773 30.4022 28.4512 28.5877 30.2422C26.7801 32.0332 24.5861 32.5938 22.1092 32.7168C19.5564 32.8604 11.9051 32.8604 9.3523 32.7168C6.88233 32.6006 4.68834 32.04 2.87381 30.249C1.05928 28.458 0.500431 26.2842 0.376243 23.8301C0.231357 21.3008 0.231357 13.7197 0.376243 11.1904C0.493532 8.73633 1.05928 6.5625 2.87381 4.77148C4.68834 2.98047 6.87543 2.41992 9.3523 2.29688C11.9051 2.15332 19.5564 2.15332 22.1092 2.29688C24.5861 2.41309 26.7801 2.97363 28.5877 4.77148C30.3953 6.5625 30.9611 8.73633 31.0853 11.1904C31.2301 13.7197 31.2301 21.2939 31.0853 23.8232ZM27.7874 8.47656C27.2492 7.13672 26.2074 6.10449 24.8482 5.56445C22.8129 4.76465 17.9834 4.94922 15.7342 4.94922C13.485 4.94922 8.64856 4.77148 6.62016 5.56445C5.26788 6.09766 4.22608 7.12988 3.68103 8.47656C2.87381 10.4932 3.06009 15.2783 3.06009 17.5068C3.06009 19.7354 2.88071 24.5273 3.68103 26.5371C4.21918 27.877 5.26098 28.9092 6.62016 29.4492C8.65546 30.249 13.485 30.0645 15.7342 30.0645C17.9834 30.0645 22.8198 30.2422 24.8482 29.4492C26.2005 28.916 27.2423 27.8838 27.7874 26.5371C28.5946 24.5205 28.4083 19.7354 28.4083 17.5068C28.4083 15.2783 28.5946 10.4863 27.7874 8.47656Z" fill="black"/>
</g>
<defs>
<clipPath id="clip0_25_35">
<rect width="30.9091" height="35" fill="white" transform="matrix(1 0 0 -1 0.272705 35)"/>
</clipPath>
</defs>
</svg>
