<svg width="31" height="35" viewBox="0 0 31 35" fill="none" xmlns="http://www.w3.org/2000/svg">
<g clip-path="url(#clip0_25_29)">
<path d="M28.5473 2.1875H2.18908C0.981313 2.1875 0 3.17871 0 4.39551V30.6045C0 31.8213 0.981313 32.8125 2.18908 32.8125H28.5473C29.7551 32.8125 30.7432 31.8213 30.7432 30.6045V4.39551C30.7432 3.17871 29.7551 2.1875 28.5473 2.1875ZM9.2916 28.4375H4.73501V13.8223H9.29846V28.4375H9.2916ZM7.0133 11.8262C5.55163 11.8262 4.3713 10.6436 4.3713 9.19434C4.3713 7.74512 5.55163 6.5625 7.0133 6.5625C8.46812 6.5625 9.6553 7.74512 9.6553 9.19434C9.6553 10.6504 8.47498 11.8262 7.0133 11.8262ZM26.3719 28.4375H21.8153V21.3281C21.8153 19.6328 21.781 17.4521 19.4478 17.4521C17.0735 17.4521 16.7098 19.2979 16.7098 21.2051V28.4375H12.1532V13.8223H16.5245V15.8184H16.5863C17.197 14.6699 18.6861 13.46 20.9027 13.46C25.5141 13.46 26.3719 16.4883 26.3719 20.4258V28.4375Z" fill="black"/>
</g>
<defs>
<clipPath id="clip0_25_29">
<rect width="30.7432" height="35" fill="white"/>
</clipPath>
</defs>
</svg>
